<svg xmlns="http://www.w3.org/2000/svg" width="37" height="37" viewBox="0 0 37 37">
  <path id="agriculture-allied" d="M36.419,36.806l-1.611-1.288a15.878,15.878,0,0,0-3.97-2.306V31.984a4.18,4.18,0,0,0,3.581-4.13V21.887a.6.6,0,0,0-.6-.6,4.162,4.162,0,0,0-2.984,1.26v-2.5a4.18,4.18,0,0,0,3.581-4.13V12.339a.6.6,0,0,0-.6-.6A4.163,4.163,0,0,0,30.839,13V10.5a4.18,4.18,0,0,0,3.581-4.13V5.177a.6.6,0,0,0-.6-.6,4.176,4.176,0,0,0-3.581,2.037,4.176,4.176,0,0,0-3.581-2.037.6.6,0,0,0-.6.6V6.371a4.18,4.18,0,0,0,3.581,4.13V13a4.163,4.163,0,0,0-2.984-1.259.6.6,0,0,0-.6.6v3.581a4.18,4.18,0,0,0,3.581,4.13v2.5a4.163,4.163,0,0,0-2.984-1.259.6.6,0,0,0-.6.6v5.968a4.18,4.18,0,0,0,3.581,4.13v.8a15.578,15.578,0,0,0-7.454-.519,15.839,15.839,0,0,0-2.095-.206V28.4a4.18,4.18,0,0,0,3.581-4.13V18.306a.6.6,0,0,0-.6-.6A4.163,4.163,0,0,0,20.1,18.969v-2.5a4.18,4.18,0,0,0,3.581-4.13V8.758a.6.6,0,0,0-.6-.6A4.163,4.163,0,0,0,20.1,9.42V6.92a4.18,4.18,0,0,0,3.581-4.13V1.6a.6.6,0,0,0-.6-.6A4.176,4.176,0,0,0,19.5,3.037,4.176,4.176,0,0,0,15.919,1a.6.6,0,0,0-.6.6V2.79A4.18,4.18,0,0,0,18.9,6.92v2.5a4.163,4.163,0,0,0-2.984-1.259.6.6,0,0,0-.6.6v3.581a4.18,4.18,0,0,0,3.581,4.13v2.5a4.163,4.163,0,0,0-2.984-1.259.6.6,0,0,0-.6.6v5.968A4.18,4.18,0,0,0,18.9,28.4v3.654a15.838,15.838,0,0,0-2.095.206,15.564,15.564,0,0,0-7.454.519v-.8a4.18,4.18,0,0,0,3.581-4.13V21.887a.6.6,0,0,0-.6-.6,4.162,4.162,0,0,0-2.984,1.26v-2.5a4.18,4.18,0,0,0,3.581-4.13V12.339a.6.6,0,0,0-.6-.6A4.163,4.163,0,0,0,9.355,13V10.5a4.18,4.18,0,0,0,3.581-4.13V5.177a.6.6,0,0,0-.6-.6A4.176,4.176,0,0,0,8.758,6.617,4.176,4.176,0,0,0,5.177,4.581a.6.6,0,0,0-.6.6V6.371A4.18,4.18,0,0,0,8.161,10.5V13a4.163,4.163,0,0,0-2.984-1.259.6.6,0,0,0-.6.6v3.581a4.18,4.18,0,0,0,3.581,4.13v2.5A4.163,4.163,0,0,0,5.177,21.29a.6.6,0,0,0-.6.6v5.968a4.18,4.18,0,0,0,3.581,4.13v1.228a15.878,15.878,0,0,0-3.97,2.306L2.581,36.806H1V38H38V36.806ZM33.226,22.544v5.311a2.988,2.988,0,0,1-2.387,2.924V25.468A2.988,2.988,0,0,1,33.226,22.544Zm0-9.548v2.924a2.988,2.988,0,0,1-2.387,2.924V15.919A2.988,2.988,0,0,1,33.226,13Zm0-7.161v.536a2.988,2.988,0,0,1-2.387,2.924V8.758A2.988,2.988,0,0,1,33.226,5.834Zm-5.968.536V5.834a2.989,2.989,0,0,1,2.387,2.924v.536A2.988,2.988,0,0,1,27.258,6.371Zm0,9.548V13a2.989,2.989,0,0,1,2.387,2.924v2.924A2.988,2.988,0,0,1,27.258,15.919Zm0,11.935V22.544a2.989,2.989,0,0,1,2.387,2.924v5.311A2.988,2.988,0,0,1,27.258,27.855ZM11.742,22.544v5.311a2.988,2.988,0,0,1-2.387,2.924V25.468A2.988,2.988,0,0,1,11.742,22.544Zm0-9.548v2.924a2.988,2.988,0,0,1-2.387,2.924V15.919A2.988,2.988,0,0,1,11.742,13Zm0-7.161v.536A2.988,2.988,0,0,1,9.355,9.295V8.758A2.988,2.988,0,0,1,11.742,5.834Zm-5.968.536V5.834A2.989,2.989,0,0,1,8.161,8.758v.536A2.988,2.988,0,0,1,5.774,6.371Zm0,9.548V13a2.989,2.989,0,0,1,2.387,2.924v2.924A2.988,2.988,0,0,1,5.774,15.919Zm0,11.935V22.544a2.989,2.989,0,0,1,2.387,2.924v5.311A2.988,2.988,0,0,1,5.774,27.855Zm28.289,8.6.445.356h-3.46l-1.611-1.288a15.888,15.888,0,0,0-3.862-2.263A14.858,14.858,0,0,1,34.063,36.45ZM19.5,33.226a14.768,14.768,0,0,1,9.192,3.224l.445.356H9.863l.445-.356A14.767,14.767,0,0,1,19.5,33.226Zm2.984-14.262v5.311A2.988,2.988,0,0,1,20.1,27.2V21.887A2.988,2.988,0,0,1,22.484,18.963Zm0-9.548v2.924A2.988,2.988,0,0,1,20.1,15.262V12.339A2.988,2.988,0,0,1,22.484,9.415Zm0-7.161V2.79A2.988,2.988,0,0,1,20.1,5.714V5.177A2.988,2.988,0,0,1,22.484,2.254Zm-5.968.536V2.254A2.988,2.988,0,0,1,18.9,5.177v.536A2.988,2.988,0,0,1,16.516,2.79Zm0,9.548V9.415A2.989,2.989,0,0,1,18.9,12.339v2.924A2.988,2.988,0,0,1,16.516,12.339Zm0,11.935V18.963A2.988,2.988,0,0,1,18.9,21.887V27.2A2.988,2.988,0,0,1,16.516,24.274ZM4.937,36.45a14.858,14.858,0,0,1,8.487-3.2,15.867,15.867,0,0,0-3.862,2.262L7.952,36.806H4.492Z" transform="translate(-1 -1)" fill="#158453"/>
</svg>
