<svg xmlns="http://www.w3.org/2000/svg" width="32.15" height="32.103" viewBox="0 0 32.15 32.103">
  <g id="basic-infrastructure" transform="translate(0.075 0.075)">
    <path id="Path_154" data-name="Path 154" d="M303.228,346.855H301.4a1.4,1.4,0,0,0-1.4,1.4v1.83a1.4,1.4,0,0,0,1.4,1.4h1.83a1.4,1.4,0,0,0,1.4-1.4v-1.83A1.4,1.4,0,0,0,303.228,346.855Zm.46,3.228a.46.46,0,0,1-.46.46H301.4a.46.46,0,0,1-.46-.46v-1.83a.46.46,0,0,1,.46-.46h1.83a.46.46,0,0,1,.46.46Zm0,0" transform="translate(-281.25 -325.177)" fill="#cb5054" stroke="#cb5054" stroke-width="0.15"/>
    <path id="Path_155" data-name="Path 155" d="M401.228,346.855H399.4a1.4,1.4,0,0,0-1.4,1.4v1.83a1.4,1.4,0,0,0,1.4,1.4h1.83a1.4,1.4,0,0,0,1.4-1.4v-1.83A1.4,1.4,0,0,0,401.228,346.855Zm.46,3.228a.46.46,0,0,1-.46.46H399.4a.46.46,0,0,1-.46-.46v-1.83a.46.46,0,0,1,.46-.46h1.83a.46.46,0,0,1,.46.46Zm0,0" transform="translate(-373.125 -325.177)" fill="#cb5054" stroke="#cb5054" stroke-width="0.15"/>
    <path id="Path_156" data-name="Path 156" d="M40.045,136.6h2.011a1.031,1.031,0,0,0,1.03-1.03v-3.068a1.031,1.031,0,0,0-1.03-1.03H40.045a1.031,1.031,0,0,0-1.03,1.03v3.068A1.031,1.031,0,0,0,40.045,136.6Zm-.092-4.1a.093.093,0,0,1,.092-.092h2.011a.093.093,0,0,1,.092.092v3.068a.092.092,0,0,1-.092.093H40.045a.093.093,0,0,1-.092-.093Zm0,0" transform="translate(-36.577 -123.26)" fill="#cb5054" stroke="#cb5054" stroke-width="0.15"/>
    <path id="Path_157" data-name="Path 157" d="M168.71,88h2.011a1.031,1.031,0,0,0,1.03-1.03V83.9a1.031,1.031,0,0,0-1.03-1.03H168.71a1.031,1.031,0,0,0-1.03,1.03v3.068A1.031,1.031,0,0,0,168.71,88Zm-.093-4.1a.093.093,0,0,1,.093-.093h2.011a.093.093,0,0,1,.093.093v3.068a.093.093,0,0,1-.093.093H168.71a.093.093,0,0,1-.093-.093Zm0,0" transform="translate(-157.199 -77.691)" fill="#cb5054" stroke="#cb5054" stroke-width="0.15"/>
    <path id="Path_158" data-name="Path 158" d="M168.71,194h2.011a1.031,1.031,0,0,0,1.03-1.03V189.9a1.031,1.031,0,0,0-1.03-1.03H168.71a1.031,1.031,0,0,0-1.03,1.03v3.068A1.031,1.031,0,0,0,168.71,194Zm-.093-4.1a.093.093,0,0,1,.093-.093h2.011a.093.093,0,0,1,.093.093v3.068a.093.093,0,0,1-.093.093H168.71a.093.093,0,0,1-.093-.093Zm0,0" transform="translate(-157.199 -177.066)" fill="#cb5054" stroke="#cb5054" stroke-width="0.15"/>
    <path id="Path_159" data-name="Path 159" d="M280.21,88h2.011a1.031,1.031,0,0,0,1.03-1.03V83.9a1.031,1.031,0,0,0-1.03-1.03H280.21a1.031,1.031,0,0,0-1.03,1.03v3.068A1.031,1.031,0,0,0,280.21,88Zm-.093-4.1a.093.093,0,0,1,.093-.093h2.011a.093.093,0,0,1,.093.093v3.068a.093.093,0,0,1-.093.093H280.21a.093.093,0,0,1-.093-.093Zm0,0" transform="translate(-261.73 -77.691)" fill="#cb5054" stroke="#cb5054" stroke-width="0.15"/>
    <path id="Path_160" data-name="Path 160" d="M280.21,194h2.011a1.031,1.031,0,0,0,1.03-1.03V189.9a1.031,1.031,0,0,0-1.03-1.03H280.21a1.031,1.031,0,0,0-1.03,1.03v3.068A1.031,1.031,0,0,0,280.21,194Zm-.093-4.1a.093.093,0,0,1,.093-.093h2.011a.093.093,0,0,1,.093.093v3.068a.093.093,0,0,1-.093.093H280.21a.093.093,0,0,1-.093-.093Zm0,0" transform="translate(-261.73 -177.066)" fill="#cb5054" stroke="#cb5054" stroke-width="0.15"/>
    <path id="Path_161" data-name="Path 161" d="M42.057,246.373a1.031,1.031,0,0,0,1.03-1.03v-3.068a1.031,1.031,0,0,0-1.03-1.03H40.045a1.031,1.031,0,0,0-1.03,1.03v3.068a1.031,1.031,0,0,0,1.03,1.03Zm-2.1-1.03v-3.068a.093.093,0,0,1,.092-.093h2.011a.093.093,0,0,1,.092.093v3.068a.092.092,0,0,1-.092.092H40.045A.093.093,0,0,1,39.953,245.344Zm0,0" transform="translate(-36.577 -226.168)" fill="#cb5054" stroke="#cb5054" stroke-width="0.15"/>
    <path id="Path_162" data-name="Path 162" d="M410.889,131.477h-2.011a1.031,1.031,0,0,0-1.03,1.03v3.068a1.031,1.031,0,0,0,1.03,1.03h2.011a1.031,1.031,0,0,0,1.03-1.03v-3.068A1.031,1.031,0,0,0,410.889,131.477Zm.092,4.1a.092.092,0,0,1-.092.093h-2.011a.093.093,0,0,1-.092-.093v-3.068a.092.092,0,0,1,.092-.092h2.011a.092.092,0,0,1,.092.092Zm0,0" transform="translate(-382.357 -123.26)" fill="#cb5054" stroke="#cb5054" stroke-width="0.15"/>
    <path id="Path_163" data-name="Path 163" d="M30.066,5.678H23.99V3.587a1.265,1.265,0,0,0,.795-1.172V1.264A1.265,1.265,0,0,0,23.521,0H12.756a.469.469,0,1,0,0,.938H23.521a.326.326,0,0,1,.326.326V2.415a.326.326,0,0,1-.326.326H8.48a.326.326,0,0,1-.326-.326V1.264A.326.326,0,0,1,8.48.938h2.4a.469.469,0,0,0,0-.938H8.48A1.265,1.265,0,0,0,7.216,1.264V2.415a1.264,1.264,0,0,0,.795,1.172V5.678H1.934A1.936,1.936,0,0,0,0,7.612V31.484a.469.469,0,0,0,.469.469H31.532A.469.469,0,0,0,32,31.484V7.612a1.936,1.936,0,0,0-1.934-1.934Zm-21.118-2h14.1V18.536H13.738a9.153,9.153,0,0,0-3.214.58,9.248,9.248,0,0,0-1.575.765ZM8.132,21.67a8.309,8.309,0,0,1,2.087-1.407v2.152a2.854,2.854,0,0,1-2.851,2.851H4.7a5.114,5.114,0,0,1,.7-.873l0,0s2.649-2.647,2.727-2.719ZM.938,7.612a1,1,0,0,1,1-1H8.011V20.538a9.244,9.244,0,0,0-.771.689l-2.5,2.5A6.093,6.093,0,0,0,2.97,27.892H.938Zm30.125,20.28H25.506a.469.469,0,0,0,0,.938h5.557v2.186H.938V28.83H23.631a.469.469,0,0,0,0-.938H17.5V23.416a1.739,1.739,0,0,0-1.737-1.737h-1.65a1.739,1.739,0,0,0-1.737,1.737v4.476H3.909c0-.034,0-.067,0-.1A5.081,5.081,0,0,1,4.235,26.2H7.368a3.792,3.792,0,0,0,3.788-3.788V19.888l.015,0a8.252,8.252,0,0,1,2.465-.409H31.063Zm-17.75,0V23.416a.8.8,0,0,1,.8-.8h1.65a.8.8,0,0,1,.8.8v4.476Zm13.115-9.356V16.108a.093.093,0,0,1,.093-.092h2.011a.092.092,0,0,1,.093.092v2.428Zm4.635,0h-1.5V16.108a1.031,1.031,0,0,0-1.03-1.03H26.521a1.031,1.031,0,0,0-1.03,1.03v2.428h-1.5V6.615h6.077a1,1,0,0,1,1,1Zm0,0" transform="translate(0 0)" fill="#cb5054" stroke="#cb5054" stroke-width="0.15"/>
  </g>
</svg>
