<svg xmlns="http://www.w3.org/2000/svg" width="262.798" height="277.543" viewBox="0 0 262.798 277.543">
  <g id="Composite_Score" data-name="Composite Score" transform="translate(-13.601)" opacity="0.05">
    <g id="Group_17" data-name="Group 17" transform="translate(13.601 79.498)">
      <g id="Group_16" data-name="Group 16">
        <path id="Path_132" data-name="Path 132" d="M270.978,333.858H259.089V161.226a14.589,14.589,0,0,0-14.572-14.572H217.942a14.589,14.589,0,0,0-14.572,14.572V333.858H173.18V239.442a14.588,14.588,0,0,0-14.572-14.572H132.033a14.589,14.589,0,0,0-14.572,14.572v94.416H87.272v-48.9A14.589,14.589,0,0,0,72.7,270.388H46.125a14.589,14.589,0,0,0-14.572,14.572v48.9H19.022a5.421,5.421,0,1,0,0,10.842H270.978a5.421,5.421,0,1,0,0-10.842Zm-194.549,0H42.393v-48.9a3.735,3.735,0,0,1,3.731-3.731H72.7a3.735,3.735,0,0,1,3.731,3.731v48.9Zm85.909,0H128.3V239.442a3.735,3.735,0,0,1,3.731-3.731h26.575a3.735,3.735,0,0,1,3.731,3.731Zm85.909,0H214.211V161.226a3.735,3.735,0,0,1,3.731-3.731h26.575a3.735,3.735,0,0,1,3.731,3.731V333.858Z" transform="translate(-13.601 -146.654)" fill="#fff"/>
      </g>
    </g>
    <g id="Group_19" data-name="Group 19" transform="translate(60.082)">
      <g id="Group_18" data-name="Group 18">
        <path id="Path_133" data-name="Path 133" d="M298.34,5.7A5.4,5.4,0,0,0,292.653.013c-.087,0-.173-.013-.262-.013h-32.8a5.421,5.421,0,1,0,0,10.842h20.25L226.257,64.43,206.049,44.222a5.421,5.421,0,0,0-7.666,0l-97.449,97.449a5.421,5.421,0,0,0,7.666,7.666L202.215,55.72l20.209,20.209a5.422,5.422,0,0,0,7.667,0l57.421-57.421V36.836a5.421,5.421,0,0,0,10.842,0V5.963C298.353,5.874,298.344,5.788,298.34,5.7Z" transform="translate(-99.346)" fill="#fff"/>
      </g>
    </g>
    <g id="Group_21" data-name="Group 21" transform="translate(41.81 158.997)">
      <g id="Group_20" data-name="Group 20" transform="translate(0)">
        <circle id="Ellipse_1" data-name="Ellipse 1" cx="5.421" cy="5.421" r="5.421" fill="#fff"/>
      </g>
    </g>
  </g>
</svg>
