<svg xmlns="http://www.w3.org/2000/svg" width="37" height="37" viewBox="0 0 37 37">
  <g id="education" transform="translate(0 -0.001)">
    <g id="_001---Degree" data-name="001---Degree" transform="translate(0 0.001)">
      <path id="Shape" d="M36.183,6.24,18.922.073a1.265,1.265,0,0,0-.842,0L.823,6.24a1.233,1.233,0,0,0,0,2.321l8.43,3.012v3.845c0,2.4,8.3,2.467,9.25,2.467s9.25-.069,9.25-2.467V11.572l1.85-.657v1.418a1.233,1.233,0,0,0,1.233,1.233H32.07A1.233,1.233,0,0,0,33.3,12.334v-1.85a1.824,1.824,0,0,0-.2-.821l3.083-1.1a1.233,1.233,0,0,0,0-2.321ZM26.52,14.061c-2.349-1.069-7.3-1.11-8.017-1.11s-5.668.041-8.017,1.11V8.688C10.857,8.213,13.765,7.4,18.5,7.4s7.647.813,8.017,1.288ZM18.5,16.651c-4.563,0-7.429-.754-7.965-1.233.536-.48,3.4-1.233,7.965-1.233s7.429.754,7.965,1.233C25.932,15.9,23.067,16.651,18.5,16.651ZM29.893,9.5l-2.139.763V8.634c0-2.4-8.3-2.467-9.25-2.467s-9.25.069-9.25,2.467v1.629L1.236,7.4,18.512,1.234l12.325,4.4V8.747A1.854,1.854,0,0,0,29.893,9.5Zm2.177,2.834H30.837v-1.85a.617.617,0,1,1,1.233,0Zm0-3.611V6.079L35.77,7.4Z" transform="translate(-0.003 -0.001)" fill="#d97f15"/>
      <path id="Shape-2" data-name="Shape" d="M35.15,31a.6.6,0,0,0-.11.01A103.255,103.255,0,0,1,18.5,32.233,103.256,103.256,0,0,1,1.96,31.01.7.7,0,0,0,1.85,31C1.418,31,0,31.489,0,37.783s1.418,6.783,1.85,6.783a.7.7,0,0,0,.11-.011,96.448,96.448,0,0,1,12.7-1.158l-1.2,2.887a1.228,1.228,0,0,0,1.63,1.583l.472-.2.2.469a1.227,1.227,0,0,0,1.134.748h.015a1.229,1.229,0,0,0,1.13-.77l1.071-2.564L20.184,48.1a1.233,1.233,0,0,0,1.134.779h.018a1.225,1.225,0,0,0,1.13-.74l.206-.473.464.2a1.229,1.229,0,0,0,1.634-1.59l-1.18-2.831a94.026,94.026,0,0,1,11.453,1.11.6.6,0,0,0,.107.008c.432,0,1.85-.489,1.85-6.783S35.582,31,35.15,31ZM20.474,33.448a12.987,12.987,0,0,1,.445,2.884,4.279,4.279,0,0,0-4.293.4,16.66,16.66,0,0,0-.424-3.288q1.12.023,2.3.023C19.174,33.467,19.829,33.459,20.474,33.448Zm-1.357,9.885A3.083,3.083,0,1,1,22.2,40.25,3.083,3.083,0,0,1,19.117,43.333ZM1.85,32.542a17.3,17.3,0,0,1,.617,5.242,17.3,17.3,0,0,1-.617,5.242,17.3,17.3,0,0,1-.617-5.242A17.3,17.3,0,0,1,1.85,32.542ZM3.1,43.13a17.221,17.221,0,0,0,.6-5.347,17.212,17.212,0,0,0-.6-5.348,108.2,108.2,0,0,0,11.819.976,15.874,15.874,0,0,1,.5,4.372c0,.089,0,.175,0,.26a4.272,4.272,0,0,0-.2,4.04l-.027.065A107.4,107.4,0,0,0,3.1,43.131ZM16.9,47.65l-.45-1.036a.617.617,0,0,0-.808-.321l-1.038.459,1.446-3.467a4.312,4.312,0,0,0,2.178,1.19Zm5.69-1.357a.617.617,0,0,0-.808.321l-.456,1.026L20,44.474a4.317,4.317,0,0,0,2.18-1.191l1.443,3.453ZM35.027,43.3a99.871,99.871,0,0,0-11.963-1.11l-.044-.106a4.291,4.291,0,0,0-.831-4.863,17.164,17.164,0,0,0-.44-3.8,102.937,102.937,0,0,0,13.279-1.161,14.547,14.547,0,0,1,.74,5.52,14.611,14.611,0,0,1-.74,5.519Z" transform="translate(0 -11.884)" fill="#d97f15"/>
    </g>
  </g>
</svg>
