<svg xmlns="http://www.w3.org/2000/svg" width="18" height="20.135" viewBox="0 0 18 20.135">
  <g id="filter" transform="translate(-19.8)">
    <g id="Group_15" data-name="Group 15" transform="translate(19.8)">
      <path id="Path_131" data-name="Path 131" d="M37.256,0H20.344A.565.565,0,0,0,19.8.566v3.46a.2.2,0,0,0,.005.054c0,.005.005.016.005.022s.005.016.005.027.005.016.005.027.005.016.005.022.005.022.011.027.005.011.005.022.005.016.011.027.005.011.011.022.011.016.011.022.005.016.011.022.011.016.016.022.011.016.016.022a.074.074,0,0,1,.016.022c.005.005.011.005.011.011l6.16,6.715V19.6a.543.543,0,0,0,.307.49.534.534,0,0,0,.226.049.522.522,0,0,0,.35-.129l4.322-3.681a.522.522,0,0,0,.183-.41V11.107L37.65,4.387l.011-.011a2538.02,2538.02,0,0,0,.032-.043.074.074,0,0,1,.016-.022.041.041,0,0,0,.011-.022c.005-.005.011-.016.016-.022s.005-.011.011-.022.011-.016.011-.027.005-.011.005-.022.005-.016.011-.027.005-.016.005-.022.005-.016.005-.027.005-.016.005-.027.005-.016.005-.022.005-.032.005-.054V.56A.56.56,0,0,0,37.256,0ZM30.563,10.542a.515.515,0,0,0-.146.356v4.764l-3.234,2.765V10.9a.515.515,0,0,0-.146-.356l-5.47-5.961H36.033ZM36.723,3.5H20.878V1.078H36.723Z" transform="translate(-19.8)" fill="#747272"/>
    </g>
  </g>
</svg>
