<svg xmlns="http://www.w3.org/2000/svg" width="37.588" height="37" viewBox="0 0 37.588 37">
  <g id="financial-inclusion" transform="translate(0 -4.008)">
    <g id="Group_23" data-name="Group 23" transform="translate(0 4.008)">
      <g id="Group_22" data-name="Group 22">
        <path id="Path_164" data-name="Path 164" d="M31.152,14.6a6.408,6.408,0,0,0-4.181,1.547L24.24,13.872a6.437,6.437,0,1,0-9.818,1.291l-4.5,4a6.458,6.458,0,1,0,.885.689l4.5-4a6.426,6.426,0,0,0,8.266-1.1l2.622,2.185A6.434,6.434,0,1,0,31.152,14.6ZM11.769,24.568a5.333,5.333,0,1,1-5.333-5.333A5.339,5.339,0,0,1,11.769,24.568Zm7.025-8.79a5.333,5.333,0,1,1,5.333-5.333A5.339,5.339,0,0,1,18.794,15.777ZM31.152,26.37a5.33,5.33,0,0,1-3.928-8.935.546.546,0,0,0,.326-.326,5.332,5.332,0,1,1,3.6,9.262Z" transform="translate(0 -4.008)" fill="#3a61cc"/>
      </g>
    </g>
    <g id="Group_25" data-name="Group 25" transform="translate(6.473 32.843)">
      <g id="Group_24" data-name="Group 24">
        <path id="Path_165" data-name="Path 165" d="M93.431,396.775H88.724a.552.552,0,0,0-.552.552v7.062a.552.552,0,0,0,.552.552h4.708a.552.552,0,0,0,.552-.552v-7.062A.552.552,0,0,0,93.431,396.775Zm-.552,7.062h-3.6v-5.958h3.6Z" transform="translate(-88.172 -396.775)" fill="#3a61cc"/>
      </g>
    </g>
    <g id="Group_27" data-name="Group 27" transform="translate(29.423 32.843)">
      <g id="Group_26" data-name="Group 26">
        <path id="Path_166" data-name="Path 166" d="M406.042,396.775h-4.708a.552.552,0,0,0-.552.552v7.062a.552.552,0,0,0,.552.552h4.708a.552.552,0,0,0,.552-.552v-7.062A.552.552,0,0,0,406.042,396.775Zm-.552,7.062h-3.6v-5.958h3.6Z" transform="translate(-400.783 -396.775)" fill="#3a61cc"/>
      </g>
    </g>
    <g id="Group_29" data-name="Group 29" transform="translate(14.123 25.781)">
      <g id="Group_28" data-name="Group 28">
        <path id="Path_167" data-name="Path 167" d="M197.634,309.966a.552.552,0,0,0,.552-.552v-8.276a.552.552,0,0,0-.552-.552h-4.708a.552.552,0,0,0-.552.552v14.123a.552.552,0,0,0,.552.552h4.708a.552.552,0,0,0,.552-.552v-3.273a.552.552,0,1,0-1.1,0v2.721h-3.6V301.69h3.6v7.724A.552.552,0,0,0,197.634,309.966Z" transform="translate(-192.375 -300.587)" fill="#3a61cc"/>
      </g>
    </g>
    <g id="Group_31" data-name="Group 31" transform="translate(21.773 29.312)">
      <g id="Group_30" data-name="Group 30">
        <path id="Path_168" data-name="Path 168" d="M301.838,348.681h-4.708a.552.552,0,0,0-.552.552v10.592a.552.552,0,0,0,.552.552h4.708a.552.552,0,0,0,.552-.552V349.233A.552.552,0,0,0,301.838,348.681Zm-.552,10.592h-3.6v-9.489h3.6Z" transform="translate(-296.579 -348.681)" fill="#3a61cc"/>
      </g>
    </g>
    <path id="Path_169" data-name="Path 169" d="M232.674,50.37h-.432a1.93,1.93,0,0,0-.362-.783h.793a.392.392,0,0,0,0-.783h-3.915a.392.392,0,0,0,0,.783h1.566a1.172,1.172,0,0,1,1.1.783h-2.669a.392.392,0,0,0,0,.783h2.669a1.172,1.172,0,0,1-1.1.783h-1.566a.392.392,0,0,0-.277.669l3.132,3.132a.392.392,0,0,0,.554-.554L229.7,52.719h.621a1.96,1.96,0,0,0,1.918-1.566h.432a.392.392,0,0,0,0-.783Z" transform="translate(-211.602 -41.507)" fill="#3a61cc"/>
    <path id="Path_170" data-name="Path 170" d="M396.633,195.128H396.2a1.931,1.931,0,0,0-.362-.783h.793a.392.392,0,0,0,0-.783h-3.915a.392.392,0,1,0,0,.783h1.566a1.173,1.173,0,0,1,1.1.783h-2.669a.392.392,0,0,0,0,.783h2.669a1.172,1.172,0,0,1-1.1.783h-1.566a.392.392,0,0,0-.277.669l3.132,3.132a.392.392,0,0,0,.554-.554l-2.464-2.464h.621a1.96,1.96,0,0,0,1.918-1.566h.432a.392.392,0,0,0,0-.783Z" transform="translate(-363.524 -175.638)" fill="#3a61cc"/>
    <path id="Path_171" data-name="Path 171" d="M60.477,240.6h-.431a1.932,1.932,0,0,0-.362-.783h.793a.392.392,0,0,0,0-.783H56.562a.392.392,0,1,0,0,.783h1.566a1.173,1.173,0,0,1,1.1.783H56.562a.392.392,0,1,0,0,.783H59.23a1.173,1.173,0,0,1-1.1.783H56.562a.392.392,0,0,0-.277.669l3.132,3.132a.392.392,0,0,0,.554-.554l-2.464-2.464h.621a1.96,1.96,0,0,0,1.918-1.566h.431a.392.392,0,0,0,0-.783Z" transform="translate(-52.046 -217.773)" fill="#3a61cc"/>
  </g>
</svg>
