<svg xmlns="http://www.w3.org/2000/svg" width="35.759" height="37" viewBox="0 0 35.759 37">
  <g id="health-nutrition" transform="translate(0 0)">
    <path id="Path_134" data-name="Path 134" d="M111.34,70.191a.686.686,0,0,0,.687-.687V66.994c0-.1-.008-.2-.015-.3l.211.211a.687.687,0,0,0,.971,0l.222-.222c-.007.1-.016.209-.016.315v2.511a.686.686,0,0,0,.687.686H116.6a4.358,4.358,0,0,0,4.353-4.352V63.328a.686.686,0,0,0-.687-.687h-2.511a4.319,4.319,0,0,0-1.608.312,4.351,4.351,0,0,0-1.176-3.983L113.194,57.2a.686.686,0,0,0-.971,0l-1.776,1.775a4.349,4.349,0,0,0-1.176,3.978,4.316,4.316,0,0,0-1.6-.308h-2.511a.686.686,0,0,0-.687.687v2.512a4.358,4.358,0,0,0,4.353,4.352h2.511Zm8.237-6.178v1.825a2.983,2.983,0,0,1-2.98,2.98h-1.824V66.994a2.983,2.983,0,0,1,2.98-2.98Zm-8.159-4.073,1.29-1.291L114,59.941a2.984,2.984,0,0,1,0,4.214l-1.29,1.29-1.29-1.29A2.984,2.984,0,0,1,111.418,59.941Zm-5.568,5.9V64.014h1.824a2.983,2.983,0,0,1,2.98,2.98v1.824H108.83A2.984,2.984,0,0,1,105.85,65.839Zm0,0" transform="translate(-96.926 -52.875)" fill="#1a91a5"/>
    <path id="Path_135" data-name="Path 135" d="M220.512,313.434a2.062,2.062,0,0,0-2.059,2.059h1.373a.686.686,0,1,1,1.373,0h1.373A2.062,2.062,0,0,0,220.512,313.434Zm0,0" transform="translate(-202.666 -290.784)" fill="#1a91a5"/>
    <path id="Path_136" data-name="Path 136" d="M296.5,322.934a2.062,2.062,0,0,0-2.059,2.059h1.373a.686.686,0,0,1,1.373,0h1.373A2.061,2.061,0,0,0,296.5,322.934Zm0,0" transform="translate(-273.16 -299.597)" fill="#1a91a5"/>
    <path id="Path_137" data-name="Path 137" d="M28.5,20.727l2.369-8.882a.7.7,0,0,0,.023-.177A1.374,1.374,0,0,0,29.515,10.3H28.142a1.365,1.365,0,0,0-.687.189V.687A.686.686,0,0,0,26.769,0H5.5l-.01,0-.01,0H.687A.686.686,0,0,0,0,.687V32.26a.688.688,0,0,0,.415.631L5.2,34.95a.694.694,0,0,0,.271.056H16.007a12.87,12.87,0,0,0,19.752-10.9v-.071c0-2.049-4.238-2.936-7.264-3.308Zm-.353-9.059h1.349l-2.526,9.476h0a0,0,0,0,1,0,0l-.409,1.571a.687.687,0,0,0,.491.838.716.716,0,0,0,.173.022.687.687,0,0,0,.664-.513l.259-.994c4.685.552,6.245,1.637,6.245,1.965,0,.675-3.92,2.26-11.522,2.26s-11.521-1.585-11.521-2.26,3.92-2.261,11.521-2.261c.406,0,.8.016,1.191.026l-.128.511a.686.686,0,0,0,.5.833.674.674,0,0,0,.168.021.688.688,0,0,0,.665-.519l.336-1.336,2.524-9.465a.717.717,0,0,0,.022-.177ZM4.788,33.276,1.373,31.808V1.373H4.788Zm9.4.356h-8V1.373h19.9v12.78l-1.673,6.276c-.506-.016-1.02-.026-1.544-.026-4.46,0-12.894.759-12.894,3.634v.071a12.919,12.919,0,0,0,.071,1.341c.014.131.042.259.06.389.041.308.082.615.146.915.036.171.088.335.13.5.064.253.124.506.2.752.062.2.141.386.212.578.078.209.151.42.239.623s.194.409.295.612c.089.179.174.359.27.533.115.207.242.405.367.6.1.161.2.324.31.48.133.192.275.375.419.56.122.157.244.314.373.465.142.166.291.327.442.487s.307.318.467.472c.073.067.136.143.21.209Zm8.682,1.995a11.454,11.454,0,0,1-6.35-1.917c-.087-.058-.171-.119-.256-.179-.2-.138-.389-.281-.576-.431-.068-.054-.138-.107-.2-.163q-.367-.307-.706-.642c-.042-.042-.082-.084-.124-.127-.223-.227-.439-.461-.642-.707l-.037-.043q-.329-.4-.621-.83c-.023-.034-.047-.069-.069-.1a11.542,11.542,0,0,1-.987-1.814c-.023-.053-.046-.106-.068-.159-.129-.31-.246-.626-.348-.948-.013-.041-.023-.082-.036-.123-.089-.293-.165-.593-.231-.9-.013-.06-.028-.12-.041-.181-.032-.157-.048-.318-.073-.478,2.636,1.369,8.082,1.782,11.369,1.782s8.734-.414,11.369-1.782a11.527,11.527,0,0,1-11.368,9.742Zm0,0" fill="#1a91a5"/>
  </g>
</svg>
