<svg id="menu" xmlns="http://www.w3.org/2000/svg" width="24" height="24" viewBox="0 0 24 24">
  <g id="Group_8" data-name="Group 8" transform="translate(12.938)">
    <g id="Group_7" data-name="Group 7">
      <path id="Path_127" data-name="Path 127" d="M283.313,0H279.75A3.754,3.754,0,0,0,276,3.75V7.313a3.754,3.754,0,0,0,3.75,3.75h3.563a3.754,3.754,0,0,0,3.75-3.75V3.75A3.754,3.754,0,0,0,283.313,0Zm1.875,7.313a1.877,1.877,0,0,1-1.875,1.875H279.75a1.877,1.877,0,0,1-1.875-1.875V3.75a1.877,1.877,0,0,1,1.875-1.875h3.563a1.877,1.877,0,0,1,1.875,1.875Z" transform="translate(-276)" fill="#fff"/>
    </g>
  </g>
  <g id="Group_10" data-name="Group 10">
    <g id="Group_9" data-name="Group 9">
      <path id="Path_128" data-name="Path 128" d="M7.313,0H3.75A3.754,3.754,0,0,0,0,3.75V7.313a3.754,3.754,0,0,0,3.75,3.75H7.313a3.754,3.754,0,0,0,3.75-3.75V3.75A3.754,3.754,0,0,0,7.313,0ZM9.188,7.313A1.877,1.877,0,0,1,7.313,9.188H3.75A1.877,1.877,0,0,1,1.875,7.313V3.75A1.877,1.877,0,0,1,3.75,1.875H7.313A1.877,1.877,0,0,1,9.188,3.75Z" fill="#fff"/>
    </g>
  </g>
  <g id="Group_12" data-name="Group 12" transform="translate(0 12.938)">
    <g id="Group_11" data-name="Group 11">
      <path id="Path_129" data-name="Path 129" d="M7.313,276H3.75A3.754,3.754,0,0,0,0,279.75v3.563a3.754,3.754,0,0,0,3.75,3.75H7.313a3.754,3.754,0,0,0,3.75-3.75V279.75A3.754,3.754,0,0,0,7.313,276Zm1.875,7.313a1.877,1.877,0,0,1-1.875,1.875H3.75a1.877,1.877,0,0,1-1.875-1.875V279.75a1.877,1.877,0,0,1,1.875-1.875H7.313a1.877,1.877,0,0,1,1.875,1.875Z" transform="translate(0 -276)" fill="#fff"/>
    </g>
  </g>
  <g id="Group_14" data-name="Group 14" transform="translate(12.938 12.938)">
    <g id="Group_13" data-name="Group 13">
      <path id="Path_130" data-name="Path 130" d="M286.125,282.375a.938.938,0,0,0-.937.938,1.877,1.877,0,0,1-1.875,1.875H279.75a1.877,1.877,0,0,1-1.875-1.875V279.75a1.877,1.877,0,0,1,1.875-1.875h3.563A1.876,1.876,0,0,1,285.032,279a.938.938,0,0,0,1.718-.751A3.751,3.751,0,0,0,283.313,276H279.75a3.754,3.754,0,0,0-3.75,3.75v3.563a3.754,3.754,0,0,0,3.75,3.75h3.563a3.754,3.754,0,0,0,3.75-3.75A.937.937,0,0,0,286.125,282.375Z" transform="translate(-276 -276)" fill="#fff"/>
    </g>
  </g>
</svg>
