<svg id="user" xmlns="http://www.w3.org/2000/svg" width="33.951" height="33.951" viewBox="0 0 33.951 33.951">
  <g id="Group_2" data-name="Group 2">
    <g id="Group_1" data-name="Group 1">
      <path id="Path_124" data-name="Path 124" d="M16.975,0A16.975,16.975,0,1,0,33.951,16.975,16.995,16.995,0,0,0,16.975,0Zm0,32.475a15.5,15.5,0,1,1,15.5-15.5A15.516,15.516,0,0,1,16.975,32.475Z" fill="#fff"/>
    </g>
  </g>
  <g id="Group_4" data-name="Group 4" transform="translate(7.381 16.237)">
    <g id="Group_3" data-name="Group 3">
      <path id="Path_125" data-name="Path 125" d="M116.261,234.667a9.606,9.606,0,0,0-9.595,9.595.738.738,0,1,0,1.476,0,8.119,8.119,0,1,1,16.237,0,.738.738,0,1,0,1.476,0A9.606,9.606,0,0,0,116.261,234.667Z" transform="translate(-106.666 -234.667)" fill="#fff"/>
    </g>
  </g>
  <g id="Group_6" data-name="Group 6" transform="translate(11.809 4.428)">
    <g id="Group_5" data-name="Group 5">
      <path id="Path_126" data-name="Path 126" d="M175.832,64A5.166,5.166,0,1,0,181,69.166,5.172,5.172,0,0,0,175.832,64Zm0,8.857a3.69,3.69,0,1,1,3.69-3.69A3.7,3.7,0,0,1,175.832,72.857Z" transform="translate(-170.666 -64)" fill="#fff"/>
    </g>
  </g>
</svg>
